<?xml version="1.0" encoding="UTF-8"?>
<svg version="1.1" xmlns="http://www.w3.org/2000/svg" width="70" height="74">
<path d="M0 0 C23.1 0 46.2 0 70 0 C70 24.42 70 48.84 70 74 C46.9 74 23.8 74 0 74 C0 49.58 0 25.16 0 0 Z " fill="#FCFCFC" transform="translate(0,0)"/>
<path d="M0 0 C5.28 0 10.56 0 16 0 C14.02 0.99 14.02 0.99 12 2 C11.67 8.6 11.34 15.2 11 22 C17.6 22 24.2 22 31 22 C30.505 12.1 30.505 12.1 30 2 C28.68 1.34 27.36 0.68 26 0 C31.28 0 36.56 0 42 0 C41.01 0.66 40.02 1.32 39 2 C38.54399724 3.87505287 38.54399724 3.87505287 38.61181641 6.05078125 C38.60235992 6.88504639 38.59290344 7.71931152 38.5831604 8.57885742 C38.59226944 9.9320105 38.59226944 9.9320105 38.6015625 11.3125 C38.59725723 12.69949097 38.59725723 12.69949097 38.59286499 14.11450195 C38.59082151 16.07145804 38.59637118 18.02843443 38.60888672 19.98535156 C38.62493636 22.98809293 38.60904763 25.98948821 38.58984375 28.9921875 C38.59182613 30.89062798 38.5956697 32.78906763 38.6015625 34.6875 C38.59548981 35.58960205 38.58941711 36.4917041 38.5831604 37.42114258 C38.59261688 38.25540771 38.60207336 39.08967285 38.61181641 39.94921875 C38.61539658 41.05269653 38.61539658 41.05269653 38.61904907 42.1784668 C38.86494827 44.4161552 38.86494827 44.4161552 42 46 C36.72 46 31.44 46 26 46 C27.32 45.34 28.64 44.68 30 44 C30.33 37.07 30.66 30.14 31 23 C24.4 23 17.8 23 11 23 C11.33 29.93 11.66 36.86 12 44 C13.32 44.66 14.64 45.32 16 46 C10.72 46 5.44 46 0 46 C1.98 45.505 1.98 45.505 4 45 C4 30.48 4 15.96 4 1 C2.68 0.67 1.36 0.34 0 0 Z " fill="#0C0C0C" transform="translate(10,15)"/>
<path d="M0 0 C1.67542976 0.28604898 3.34385343 0.61781233 5 1 C5 2.65 5 4.3 5 6 C2.625 6.625 2.625 6.625 0 7 C-0.66 6.34 -1.32 5.68 -2 5 C-1.46428571 1.46428571 -1.46428571 1.46428571 0 0 Z " fill="#121212" transform="translate(59,55)"/>
</svg>
